<svg xmlns="http://www.w3.org/2000/svg" xmlns:xlink="http://www.w3.org/1999/xlink" width="491.66" height="183.83" viewBox="0 0 491.66 183.83"><defs><linearGradient id="a" x1="174.95" y1="16.76" x2="12.22" y2="179.5" gradientUnits="userSpaceOnUse"><stop offset="0" stop-color="#57b45a"/><stop offset="1" stop-color="#368945"/></linearGradient></defs><title>8912732</title><path d="M172.63,118.71A67.38,67.38,0,0,1,188,122.29v-89A29.53,29.53,0,0,0,158.46,3.72H77.83c3.24,13.58,3.09,32.64-8,57.18C64,73.65,61.71,84,61.32,92.22L86.08,69.48a2.77,2.77,0,0,1,3.74,4.09l-28.33,26a39.85,39.85,0,0,0,2,9.39L101,74.54a2.77,2.77,0,0,1,3.75,4.09L66,114.26a20.72,20.72,0,0,0,3.21,4.23,5.88,5.88,0,0,1,1.86,2s.11.12.18.22L112.35,83A2.77,2.77,0,1,1,116.11,87L75.47,124.36a33.12,33.12,0,0,0,8,3.94l32.14-29.52a2.77,2.77,0,0,1,3.75,4.07L89.93,129.91c1,.16,2,.3,3,.43a10.39,10.39,0,0,1-1.08,20.72,10.51,10.51,0,0,1-1.12-.06c-22-2.34-32.86-13.72-35.93-17.54-5.44-5.31-26.9-30.59-4-81.15,6.84-15.09,8.49-27.08,7.87-36.21L30.38,42.15a2.78,2.78,0,0,1-1.89.72,2.72,2.72,0,0,1-2-.89,2.78,2.78,0,0,1,.17-3.92L57.8,9.42a39.44,39.44,0,0,0-1.63-5.7H51.72L14.9,37.56a2.78,2.78,0,1,1-3.76-4.09L43.54,3.72s-11.57,0-12.42.12A29.5,29.5,0,0,0,4.17,33.25V46a42.36,42.36,0,0,0,16.64,5.76A10.39,10.39,0,0,1,19.4,72.45a10.06,10.06,0,0,1-1.44-.1A67.56,67.56,0,0,1,4.17,69v89A29.53,29.53,0,0,0,33.7,187.55h80.72c-3.26-13.58-3.09-32.64,8-57.19,18.07-39.81,2.06-56.17.55-57.58a5.91,5.91,0,0,1-1.84-2c-.78-1-7.22-8.48-22.55-9.9a10.39,10.39,0,1,1,1.91-20.7c22.7,2.11,33.79,13.76,36.89,17.64,5.45,5.32,26.91,30.59,4,81.15-10.58,23.3-8.76,39.25-5.32,48.59,0,0,24.19,0,25.08-.13A29.07,29.07,0,0,0,174,183.11a29.53,29.53,0,0,0,8.12-7.47A29.62,29.62,0,0,0,188,158v-6.54l-35.18,32.32a2.77,2.77,0,1,1-3.75-4.09l38.08-35a39.68,39.68,0,0,0-8.37-3.58L149,168.45a2.77,2.77,0,0,1-3.74-4.09l26.9-24.72c-.64-.1-1.28-.2-2-.28a10.39,10.39,0,1,1,2.39-20.65Z" transform="translate(-4.17 -3.72)" fill="url(#a)"/><text transform="translate(210.3 61.06)" font-size="64.48" fill="#57b45a" font-family="Poppins-Bold, Poppins" font-weight="700">EASY<tspan x="0" y="65.22">MOL</tspan></text><text transform="translate(210.3 171.83)" font-size="24.91" fill="#8f8f8f" font-family="OpenSans-Regular, Open Sans" letter-spacing="0.01em">Molecules, Simple, Fast!</text></svg>